<svg xmlns="http://www.w3.org/2000/svg" viewBox="0 0 43.37220730434781 43.372207304347825" height="43.372207304347825" width="43.37220730434781"><g><path xmlns="http://www.w3.org/2000/svg" d="M13.012 43.372c-7.186 0-13.012-5.826-13.012-13.011v-17.349c0-7.186 5.826-13.012 13.012-13.012h17.349c7.186 0 13.012 5.826 13.011 13.012v17.349c0 7.186-5.826 13.012-13.011 13.011z" fill="#ffffff" fill-rule="nonzero" stroke="none" stroke-width="1" stroke-linecap="butt" stroke-linejoin="miter" stroke-miterlimit="10" stroke-dasharray="" stroke-dashoffset="0" font-family="none" font-weight="none" font-size="none" text-anchor="none" style="mix-blend-mode: normal" data-fill-palette-color="accent"/></g><g transform="matrix(1,0,0,1,10.351499922701885,8.674441460869563)"><svg viewBox="0 0 22.66920745894404 26.0233243826087" height="26.0233243826087" width="22.66920745894404"><g><svg xmlns="http://www.w3.org/2000/svg" xmlns:xlink="http://www.w3.org/1999/xlink" version="1.1" x="0" y="0" viewBox="10.100000381469727 5.199999809265137 78.4000015258789 90" enable-background="new 0 0 100 100" xml:space="preserve" height="26.0233243826087" width="22.66920745894404" class="icon-s-0" data-fill-palette-color="quaternary" id="s-0"><polygon fill-rule="evenodd" clip-rule="evenodd" fill="#096a2e" points="88.5,28.2 68.4,59.9 68.5,22.3 " data-fill-palette-color="quaternary"/><polygon fill-rule="evenodd" clip-rule="evenodd" fill="#096a2e" points="49.8,5.2 67.2,38.5 34.7,19.6 " data-fill-palette-color="quaternary"/><polygon fill-rule="evenodd" clip-rule="evenodd" fill="#096a2e" points="67.8,38.3 67.8,22.3 60.8,24.5 " data-fill-palette-color="quaternary"/><polygon fill-rule="evenodd" clip-rule="evenodd" fill="#096a2e" points="88.2,73.2 50.6,71.7 83.2,52.9 " data-fill-palette-color="quaternary"/><polygon fill-rule="evenodd" clip-rule="evenodd" fill="#096a2e" points="69.1,60.3 82.8,52.3 77.4,47.4 " data-fill-palette-color="quaternary"/><polygon fill-rule="evenodd" clip-rule="evenodd" fill="#096a2e" points="48.7,95.2 31.5,61.9 63.9,80.9 " data-fill-palette-color="quaternary"/><polygon fill-rule="evenodd" clip-rule="evenodd" fill="#096a2e" points="50.5,72.2 64.2,80.2 65.8,73.1 " data-fill-palette-color="quaternary"/><polygon fill-rule="evenodd" clip-rule="evenodd" fill="#096a2e" points="10.1,72 30.5,40.4 30.1,78 " data-fill-palette-color="quaternary"/><polygon fill-rule="evenodd" clip-rule="evenodd" fill="#096a2e" points="30.9,62.1 30.8,78 37.8,75.8 " data-fill-palette-color="quaternary"/><polygon fill-rule="evenodd" clip-rule="evenodd" fill="#096a2e" points="11,27 48.5,28.9 15.8,47.3 " data-fill-palette-color="quaternary"/><polygon fill-rule="evenodd" clip-rule="evenodd" fill="#096a2e" points="30,40.1 16.1,47.9 21.5,52.9 " data-fill-palette-color="quaternary"/><polygon fill-rule="evenodd" clip-rule="evenodd" fill="#096a2e" points="48.2,28.3 34.5,20.2 32.9,27.4 " data-fill-palette-color="quaternary"/></svg></g></svg></g></svg>
